<svg id="Layer_1" data-name="Layer 1" xmlns="http://www.w3.org/2000/svg" viewBox="0 0 1000 1000"><defs><style>.cls-1{fill:#f7f48d;}</style></defs><path class="cls-1" d="M324.19,75.37s2.44,3.39,6.54,10.26c1.37,2.28,2.93,5,4.64,8C358,122,372,155,387.6,186.81a53.14,53.14,0,0,1,4.16,8.94A25.39,25.39,0,0,1,393,205c-1,24,11,41,21,61a78.23,78.23,0,0,1,1.09,10.58c.14,3.54.11,7.1.41,10.51C416,292,419,298,422,302c14,18,27,35,27,59-1,13,6,25,9,37a67.71,67.71,0,0,1,1.19,17.39c-.75,17.49-5.45,35.11,2.79,51.61a69.61,69.61,0,0,1-.09,8.27c-2.41,13.11,1.36,26.4,2.1,39.73a66.73,66.73,0,0,1,0,8c-3.33,13.33-6.22,26.22-7.19,39.26a92.16,92.16,0,0,0-.25,9.85,53.67,53.67,0,0,1,1.13,21,68.82,68.82,0,0,1-2.2,10.07,86.21,86.21,0,0,0-1.77,8.83c2.95,33.29-4.85,64.16-20.81,92.92q-2.66,4.79-5.6,9.51C428,752,413,783,393.62,813.89c-1.18,3-2.41,5.75-3.52,8.63A149.33,149.33,0,0,1,345,899c-3,3-3,9-6.59,11.68-2.71,4.86-4.84,8.39-6.32,10.74s-2.28,3.51-2.28,3.51q13-.07,25.79-.89,3.19-.19,6.38-.45c19-2.59,38-3.59,56.22-7.88q6.12-1.25,12.17-2.66C624,867.74,767.24,698.34,765.91,497.25,764.36,262.65,566.59,73.77,324.19,75.37Z"/></svg>